Coordinates
version=1
nRows=11
nColumns=40
inDegrees=yes

Units are S.I. units (second, meters, Newtons, ...)
Angles are in degrees.

endheader
time	pelvis_tilt	pelvis_list	pelvis_rotation	pelvis_tx	pelvis_ty	pelvis_tz	hip_flexion_r	hip_adduction_r	hip_rotation_r	knee_angle_r	knee_angle_r_beta	ankle_angle_r	subtalar_angle_r	mtp_angle_r	hip_flexion_l	hip_adduction_l	hip_rotation_l	knee_angle_l	knee_angle_l_beta	ankle_angle_l	subtalar_angle_l	mtp_angle_l	lumbar_extension	lumbar_bending	lumbar_rotation	arm_flex_r	arm_add_r	arm_rot_r	elbow_flex_r	pro_sup_r	wrist_flex_r	wrist_dev_r	arm_flex_l	arm_add_l	arm_rot_l	elbow_flex_l	pro_sup_l	wrist_flex_l	wrist_dev_l
     56.58500000	     -6.15034120	     -4.84910470	     11.43423583	      1.20045352	      0.91612497	      0.52827322	     10.76771797	      4.59472447	    -13.98855244	     21.27792289	     21.27792289	     18.68332208	     -6.15223427	     -2.51394701	     31.66435670	     -8.85598496	      4.86977769	     21.87365459	     21.87365459	      1.19372849	     -8.04132257	      4.00466531	    -11.54651524	      2.95828068	      5.26319181	     66.55232379	    -14.86124183	      6.88722826	     95.55786510	     44.09050680	      0.00000000	      0.00000000	    -19.26117348	     -8.26015089	     21.35369874	     32.61409561	     43.23835670	      0.00000000	      0.00000000
     56.60750000	     -6.26362839	     -5.02191540	     11.50992077	      1.20125651	      0.91520176	      0.52469369	     10.57586395	      4.61888260	    -13.78482163	     21.40047849	     21.40047849	     18.97612856	     -6.53531013	     -2.29514915	     31.40115853	     -8.74590632	      4.98278622	     22.00922712	     22.00922712	      1.53595053	     -8.39458401	      3.23302011	    -11.42940943	      2.93031248	      5.17619905	     66.80080947	    -14.74630124	      8.34202493	     98.21835806	     43.98995872	      0.00000000	      0.00000000	    -18.46901797	     -8.40534338	     21.41065202	     32.31191867	     43.29098565	      0.00000000	      0.00000000
     56.63000000	     -6.31424174	     -5.14573058	     11.55708564	      1.20205159	      0.91456435	      0.52073396	     10.29327943	      4.56203751	    -13.62711236	     21.51897170	     21.51897170	     19.27189642	     -6.71906612	     -2.03044207	     31.14234397	     -8.59359666	      5.09749959	     22.29326357	     22.29326357	      1.93854551	     -8.76861216	      2.50285179	    -11.40253540	      2.90873495	      5.46538846	     67.12904055	    -15.08384248	      9.40365238	    100.32445871	     43.93515220	      0.00000000	      0.00000000	    -17.32614440	     -8.71085949	     21.41245283	     32.02053292	     43.37427769	      0.00000000	      0.00000000
     56.65250000	     -6.40393932	     -5.24529036	     11.60416327	      1.20282920	      0.91412592	      0.51644010	      9.99521529	      4.43880938	    -13.55086253	     21.53797122	     21.53797122	     19.44048515	     -6.81745273	     -1.90361072	     31.00262190	     -8.39108080	      5.24001453	     22.71183523	     22.71183523	      2.50482989	     -9.07213167	      2.13336989	    -11.33887131	      2.89079435	      5.39833421	     67.42195829	    -14.76862082	     10.13500916	    101.62756061	     43.89630902	      0.00000000	      0.00000000	    -16.36379076	     -9.09067700	     21.35111790	     31.97840974	     43.43047203	      0.00000000	      0.00000000
     56.67500000	     -6.53243998	     -5.25795505	     11.61566458	      1.20355389	      0.91399112	      0.51183232	      9.68038582	      4.19265035	    -13.48037279	     21.48093695	     21.48093695	     19.49643605	     -6.83951446	     -1.86041139	     30.86709806	     -8.10202459	      5.29960021	     23.08510288	     23.08510288	      3.03735615	     -9.30933930	      1.86995204	    -11.20065523	      2.80278592	      5.36684359	     67.55339529	    -14.40415263	     10.46095258	    101.99993784	     43.87927279	      0.00000000	      0.00000000	    -15.31789176	     -9.65388997	     21.20183908	     32.14173077	     43.46976822	      0.00000000	      0.00000000
     56.69750000	     -6.68177634	     -5.26892922	     11.59382909	      1.20421708	      0.91406514	      0.50699519	      9.36880424	      3.92564822	    -13.39175854	     21.38462898	     21.38462898	     19.48778067	     -6.80570070	     -1.80344113	     30.77532503	     -7.80246181	      5.38368964	     23.48227494	     23.48227494	      3.57208072	     -9.54120898	      1.61933084	    -11.07805246	      2.73727591	      5.28684291	     67.67598448	    -14.07932767	     10.81139505	    102.40000636	     43.85951349	      0.00000000	      0.00000000	    -14.26126035	    -10.24170538	     21.03537584	     32.32346518	     43.50986924	      0.00000000	      0.00000000
     56.72000000	     -6.85082946	     -5.28808907	     11.50967636	      1.20482822	      0.91432954	      0.50203825	      9.08067661	      3.64424508	    -13.31559358	     21.27149175	     21.27149175	     19.38961138	     -6.72029230	     -1.73023172	     30.69440370	     -7.52835252	      5.40987044	     23.85723383	     23.85723383	      4.09596286	     -9.79124390	      1.39983495	    -10.98301528	      2.71247011	      5.19539054	     67.75763970	    -13.82084579	     11.15230503	    102.75642314	     43.84068031	      0.00000000	      0.00000000	    -13.20740828	    -10.85322082	     20.85193904	     32.52749808	     43.55113194	      0.00000000	      0.00000000
     56.74250000	     -6.86257247	     -5.38027180	     11.41686386	      1.20546663	      0.91492157	      0.49684102	      8.53755056	      3.42183933	    -13.49651416	     20.98422008	     20.98422008	     19.23259653	     -6.14111207	     -1.70080067	     30.61900233	     -7.33445768	      5.50713533	     24.51342039	     24.51342039	      4.75721457	    -10.08203459	      1.71846811	    -11.12198774	      2.91236141	      5.59686312	     67.93793582	    -14.78586888	     12.68136699	    104.80378096	     43.75556510	      0.00000000	      0.00000000	    -11.94541181	    -11.50212103	     20.28128717	     33.06745676	     43.68116387	      0.00000000	      0.00000000
     56.76500000	     -7.10547050	     -5.35834839	     11.24786657	      1.20590945	      0.91545012	      0.49167740	      8.36668777	      3.04967680	    -13.37192833	     20.92623944	     20.92623944	     19.03266720	     -6.03836501	     -1.63507464	     30.51405503	     -7.03403563	      5.37844591	     24.71030403	     24.71030403	      5.16390374	    -10.25119361	      1.60628843	    -10.99112892	      2.90168718	      5.52720712	     67.81399074	    -14.60887837	     12.87016778	    104.83626736	     43.75157794	      0.00000000	      0.00000000	    -10.80149223	    -12.21200711	     20.05419115	     33.33134706	     43.72884764	      0.00000000	      0.00000000
     56.78750000	     -7.29688665	     -5.36492737	     11.02039770	      1.20637671	      0.91612923	      0.48649512	      8.16737734	      2.70107651	    -13.26611459	     20.89975081	     20.89975081	     18.76664538	     -5.85749226	     -1.58383365	     30.34972958	     -6.79377968	      5.21817808	     24.90584636	     24.90584636	      5.55092647	    -10.44971432	      1.53741867	    -10.89941948	      2.95110444	      5.49433580	     67.65752651	    -14.49961852	     13.04056732	    104.82389194	     43.74946464	      0.00000000	      0.00000000	     -9.64223205	    -12.91120817	     19.80555207	     33.66294053	     43.77935946	      0.00000000	      0.00000000
     56.81000000	     -7.42844541	     -5.30381799	     10.73295378	      1.20684967	      0.91699420	      0.48121076	      7.89510594	      2.21057301	    -13.42682063	     20.89186179	     20.89186179	     18.44303742	     -5.14677850	     -1.92451466	     30.04259545	     -6.50524998	      5.01190164	     25.03468634	     25.03468634	      6.13035405	    -10.61160659	      2.11664146	    -10.88126237	      2.93882308	      6.04967610	     67.29109164	    -15.38321211	     13.07519923	    104.78031595	     43.77296198	      0.00000000	      0.00000000	     -8.39488450	    -13.66777227	     19.12110100	     34.80246415	     43.91430109	      0.00000000	      0.00000000
